<svg width="57" height="57" viewBox="0 0 57 57" fill="none" xmlns="http://www.w3.org/2000/svg">
<g id="Group 1000006906">
<rect id="Rectangle 5221" width="57" height="57" rx="17" fill="white" fill-opacity="0.08"/>
<path id="Union" fill-rule="evenodd" clip-rule="evenodd" d="M30 20C30 19.4477 29.5523 19 29 19C28.4477 19 28 19.4477 28 20V28H20C19.4477 28 19 28.4477 19 29C19 29.5523 19.4477 30 20 30H28V38C28 38.5523 28.4477 39 29 39C29.5523 39 30 38.5523 30 38V30H38C38.5523 30 39 29.5523 39 29C39 28.4477 38.5523 28 38 28H30V20Z" fill="url(#paint0_linear_12054_371)"/>
</g>
<defs>
<linearGradient id="paint0_linear_12054_371" x1="15.5" y1="35.4706" x2="44.4962" y2="27.1976" gradientUnits="userSpaceOnUse">
<stop offset="0.0237305" stop-color="#94783E"/>
<stop offset="0.216904" stop-color="#F3EDA6"/>
<stop offset="0.329505" stop-color="#F8FAE5"/>
<stop offset="0.486109" stop-color="#FFE2BE"/>
<stop offset="0.723574" stop-color="#D5BE88"/>
<stop offset="0.809185" stop-color="#F8FAE5"/>
<stop offset="0.902849" stop-color="#D5BE88"/>
</linearGradient>
</defs>
</svg>
