<svg width="32" height="32" viewBox="0 0 32 32" fill="none" xmlns="http://www.w3.org/2000/svg">
<path d="M24 13.3332L22.12 11.4398L13.3333 20.2265L9.88 16.7865L8 18.6665L13.3333 23.9998L24 13.3332ZM25.3333 5.33317H19.76C19.2 3.7865 17.7333 2.6665 16 2.6665C14.2667 2.6665 12.8 3.7865 12.24 5.33317H6.66667C6.48 5.33317 6.30667 5.3465 6.13333 5.3865C5.61333 5.49317 5.14667 5.75984 4.78667 6.11984C4.54667 6.35984 4.34667 6.65317 4.21333 6.97317C4.08 7.27984 4 7.6265 4 7.99984V26.6665C4 27.0265 4.08 27.3865 4.21333 27.7065C4.34667 28.0265 4.54667 28.3065 4.78667 28.5598C5.14667 28.9198 5.61333 29.1865 6.13333 29.2932C6.30667 29.3198 6.48 29.3332 6.66667 29.3332H25.3333C26.8 29.3332 28 28.1332 28 26.6665V7.99984C28 6.53317 26.8 5.33317 25.3333 5.33317ZM16 4.99984C16.5467 4.99984 17 5.45317 17 5.99984C17 6.5465 16.5467 6.99984 16 6.99984C15.4533 6.99984 15 6.5465 15 5.99984C15 5.45317 15.4533 4.99984 16 4.99984ZM25.3333 26.6665H6.66667V7.99984H25.3333V26.6665Z" fill="black"/>
</svg>
