<svg width="32" height="32" viewBox="0 0 32 32" fill="none" xmlns="http://www.w3.org/2000/svg">
<path d="M18.8933 6.66667L25.3333 13.1067V25.3333H6.66667V6.66667H18.8933ZM18.8933 4H6.66667C5.2 4 4 5.2 4 6.66667V25.3333C4 26.8 5.2 28 6.66667 28H25.3333C26.8 28 28 26.8 28 25.3333V13.1067C28 12.4 27.72 11.72 27.2133 11.2267L20.7733 4.78667C20.28 4.28 19.6 4 18.8933 4ZM9.33333 20H22.6667V22.6667H9.33333V20ZM9.33333 14.6667H22.6667V17.3333H9.33333V14.6667ZM9.33333 9.33333H18.6667V12H9.33333V9.33333Z" fill="black"/>
</svg>
