<svg width="32" height="32" viewBox="0 0 32 32" fill="none" xmlns="http://www.w3.org/2000/svg">
<path d="M14 15.6667C16.9467 15.6667 19.3334 13.28 19.3334 10.3333C19.3334 7.38667 16.9467 5 14 5C11.0534 5 8.66671 7.38667 8.66671 10.3333C8.66671 13.28 11.0534 15.6667 14 15.6667ZM14 7.66667C15.4667 7.66667 16.6667 8.86667 16.6667 10.3333C16.6667 11.8 15.4667 13 14 13C12.5334 13 11.3334 11.8 11.3334 10.3333C11.3334 8.86667 12.5334 7.66667 14 7.66667ZM6.00004 23.6667C6.26671 22.8267 9.42671 21.4267 12.6134 21.08L15.3334 18.4133C14.8134 18.36 14.4267 18.3333 14 18.3333C10.44 18.3333 3.33337 20.12 3.33337 23.6667V26.3333H15.3334L12.6667 23.6667H6.00004ZM26.8 16.3333L19.96 23.2267L17.2 20.4533L15.3334 22.3333L19.96 27L28.6667 18.2133L26.8 16.3333Z" fill="#B0039E"/>
</svg>
