<svg width="80" height="80" viewBox="0 0 80 80" fill="none" xmlns="http://www.w3.org/2000/svg">
<path d="M40 6.6665C21.6 6.6665 6.66663 21.5998 6.66663 39.9998C6.66663 58.3998 21.6 73.3332 40 73.3332C58.4 73.3332 73.3333 58.3998 73.3333 39.9998C73.3333 21.5998 58.4 6.6665 40 6.6665ZM40 66.6665C25.2666 66.6665 13.3333 54.7332 13.3333 39.9998C13.3333 33.8332 15.4333 28.1665 18.9666 23.6665L56.3333 61.0332C51.8333 64.5665 46.1666 66.6665 40 66.6665ZM61.0333 56.3332L23.6666 18.9665C28.1666 15.4332 33.8333 13.3332 40 13.3332C54.7333 13.3332 66.6666 25.2665 66.6666 39.9998C66.6666 46.1665 64.5666 51.8332 61.0333 56.3332Z" fill="#F44550"/>
</svg>
