<svg width="32" height="32" viewBox="0 0 32 32" fill="none" xmlns="http://www.w3.org/2000/svg">
<path d="M21.3333 12H17.9333V8H14.0667V12H10.6667L16 17.3333L21.3333 12ZM25.3333 4H6.65333C5.17333 4 4 5.2 4 6.66667V25.3333C4 26.8 5.17333 28 6.65333 28H25.3333C26.8 28 28 26.8 28 25.3333V6.66667C28 5.2 26.8 4 25.3333 4ZM25.3333 25.3333H6.66667V21.3333H11.4133C12.3333 22.92 14.04 24 16.0133 24C17.9867 24 19.68 22.92 20.6133 21.3333H25.3333V25.3333ZM25.3333 18.6667H18.68C18.68 20.1333 17.48 21.3333 16.0133 21.3333C14.5467 21.3333 13.3467 20.1333 13.3467 18.6667H6.66667L6.65333 6.66667H25.3333V18.6667Z" fill="black"/>
</svg>
