<svg width="32" height="32" viewBox="0 0 32 32" fill="none" xmlns="http://www.w3.org/2000/svg">
<path d="M8.28 18.6267L9.88 21.3867C9.98667 21.56 10.1867 21.6267 10.3733 21.56L12.36 20.76C12.7733 21.08 13.2133 21.3467 13.7067 21.5467L14 23.6667C14.04 23.8533 14.2 24 14.4 24H17.6C17.8 24 17.96 23.8533 18 23.6533L18.2933 21.5333C18.7733 21.3333 19.2267 21.0667 19.64 20.7467L21.6267 21.5467C21.8133 21.6133 22.0133 21.5467 22.12 21.3733L23.72 18.6133C23.8267 18.44 23.7733 18.2267 23.6267 18.0933L21.9333 16.7733C21.9733 16.52 21.9867 16.2533 21.9867 16C21.9867 15.7333 21.96 15.48 21.9333 15.2133L23.6267 13.8933C23.7733 13.7733 23.8267 13.5467 23.72 13.3733L22.12 10.6133C22.0133 10.44 21.8133 10.3733 21.6267 10.44L19.64 11.24C19.2267 10.92 18.7867 10.6533 18.2933 10.4533L18 8.33333C17.96 8.14667 17.8 8 17.6 8H14.4C14.2 8 14.04 8.14667 14 8.34667L13.7067 10.4667C13.2267 10.6667 12.76 10.92 12.36 11.24L10.3733 10.44C10.1867 10.3733 9.98667 10.44 9.88 10.6133L8.28 13.3733C8.17333 13.5467 8.22667 13.76 8.37333 13.8933L10.0667 15.2133C10.0267 15.48 10 15.7333 10 16C10 16.2667 10.0267 16.52 10.0533 16.7867L8.36 18.1067C8.21333 18.24 8.17333 18.4533 8.28 18.6267ZM16 13.72C17.2533 13.72 18.28 14.7467 18.28 16C18.28 17.2533 17.2533 18.28 16 18.28C14.7467 18.28 13.72 17.2533 13.72 16C13.72 14.7467 14.7467 13.72 16 13.72ZM25.3333 4H6.66667C5.18667 4 4 5.2 4 6.66667V25.3333C4 26.8 5.18667 28 6.66667 28H25.3333C26.8133 28 28 26.8 28 25.3333V6.66667C28 5.2 26.8133 4 25.3333 4ZM25.3333 25.3333H6.66667V6.66667H25.3333V25.3333Z" fill="black"/>
</svg>
