<svg width="32" height="32" viewBox="0 0 32 32" fill="none" xmlns="http://www.w3.org/2000/svg">
<path d="M28.546 15.4398L16.546 3.43984C16.066 2.95984 15.3993 2.6665 14.666 2.6665H5.33268C3.86602 2.6665 2.66602 3.8665 2.66602 5.33317V14.6665C2.66602 15.3998 2.95935 16.0665 3.45268 16.5598L15.4527 28.5598C15.9327 29.0398 16.5993 29.3332 17.3327 29.3332C18.066 29.3332 18.7327 29.0398 19.2127 28.5465L28.546 19.2132C29.0393 18.7332 29.3327 18.0665 29.3327 17.3332C29.3327 16.5998 29.026 15.9198 28.546 15.4398ZM17.3327 26.6798L5.33268 14.6665V5.33317H14.666V5.31984L26.666 17.3198L17.3327 26.6798Z" fill="black"/>
<path d="M8.66602 10.6665C9.77059 10.6665 10.666 9.77107 10.666 8.6665C10.666 7.56193 9.77059 6.6665 8.66602 6.6665C7.56145 6.6665 6.66602 7.56193 6.66602 8.6665C6.66602 9.77107 7.56145 10.6665 8.66602 10.6665Z" fill="black"/>
</svg>
