<svg width="32" height="32" viewBox="0 0 32 32" fill="none" xmlns="http://www.w3.org/2000/svg">
<path d="M25.3333 6.66667V25.3333H6.66667V6.66667H25.3333ZM25.3333 4H6.66667C5.18667 4 4 5.2 4 6.66667V25.3333C4 26.8 5.18667 28 6.66667 28H25.3333C26.8 28 28 26.8 28 25.3333V6.66667C28 5.2 26.8 4 25.3333 4ZM16 16C13.8 16 12 14.2 12 12C12 9.8 13.8 8 16 8C18.2 8 20 9.8 20 12C20 14.2 18.2 16 16 16ZM16 10.6667C15.2667 10.6667 14.6667 11.2667 14.6667 12C14.6667 12.7333 15.2667 13.3333 16 13.3333C16.7333 13.3333 17.3333 12.7333 17.3333 12C17.3333 11.2667 16.7333 10.6667 16 10.6667ZM24 24H8V21.96C8 18.6267 13.2933 17.1867 16 17.1867C18.7067 17.1867 24 18.6267 24 21.96V24ZM11.08 21.3333H20.92C20 20.5867 17.7467 19.84 16 19.84C14.2533 19.84 11.9867 20.5867 11.08 21.3333Z" fill="black"/>
</svg>
